<svg width="54" height="28" viewBox="0 0 54 28" fill="none" xmlns="http://www.w3.org/2000/svg">
<path d="M6.822 0.162C7.026 0.162 7.128 0.696 7.128 1.764C7.128 2.82 7.026 3.348 6.822 3.348H3.528V5.4H5.724C5.928 5.4 6.03 5.868 6.03 6.804C6.03 7.728 5.934 8.19 5.742 8.19H3.528V12.528C3.528 12.696 3.3 12.804 2.844 12.852C2.4 12.912 2.028 12.942 1.728 12.942L0.882003 12.906C0.294002 12.834 2.47359e-06 12.714 2.47359e-06 12.546V0.630001C2.47359e-06 0.438 0.0360025 0.312 0.108002 0.252C0.192002 0.192 0.312002 0.162 0.468002 0.162H6.822ZM14.0882 12.942C12.4082 12.942 11.0342 12.39 9.96624 11.286C8.91024 10.182 8.38224 8.574 8.38224 6.462C8.38224 4.338 8.91624 2.73 9.98424 1.638C11.0642 0.546 12.4502 1.19209e-07 14.1422 1.19209e-07C15.8462 1.19209e-07 17.2202 0.54 18.2642 1.62C19.3082 2.688 19.8302 4.314 19.8302 6.498C19.8302 8.67 19.2962 10.29 18.2282 11.358C17.1602 12.414 15.7802 12.942 14.0882 12.942ZM14.1062 3.456C13.5302 3.456 13.0442 3.72 12.6482 4.248C12.2642 4.776 12.0722 5.52 12.0722 6.48C12.0722 7.428 12.2582 8.16 12.6302 8.676C13.0022 9.18 13.4882 9.432 14.0882 9.432C14.7002 9.432 15.1922 9.174 15.5642 8.658C15.9482 8.142 16.1402 7.404 16.1402 6.444C16.1402 5.484 15.9422 4.746 15.5462 4.23C15.1622 3.714 14.6822 3.456 14.1062 3.456ZM26.7834 12.942C25.1034 12.942 23.7294 12.39 22.6614 11.286C21.6054 10.182 21.0774 8.574 21.0774 6.462C21.0774 4.338 21.6114 2.73 22.6794 1.638C23.7594 0.546 25.1454 1.19209e-07 26.8374 1.19209e-07C28.5414 1.19209e-07 29.9154 0.54 30.9594 1.62C32.0034 2.688 32.5254 4.314 32.5254 6.498C32.5254 8.67 31.9914 10.29 30.9234 11.358C29.8554 12.414 28.4754 12.942 26.7834 12.942ZM26.8014 3.456C26.2254 3.456 25.7394 3.72 25.3434 4.248C24.9594 4.776 24.7674 5.52 24.7674 6.48C24.7674 7.428 24.9534 8.16 25.3254 8.676C25.6974 9.18 26.1834 9.432 26.7834 9.432C27.3954 9.432 27.8874 9.174 28.2594 8.658C28.6434 8.142 28.8354 7.404 28.8354 6.444C28.8354 5.484 28.6374 4.746 28.2414 4.23C27.8574 3.714 27.3774 3.456 26.8014 3.456ZM34.1326 11.934V1.134C34.1326 0.834001 34.2046 0.600001 34.3486 0.432C34.5046 0.252 34.7026 0.162 34.9426 0.162H37.9486C39.8566 0.162 41.3026 0.642 42.2866 1.602C43.2826 2.562 43.7806 4.074 43.7806 6.138C43.7806 10.554 41.8966 12.762 38.1286 12.762H35.0506C34.4386 12.762 34.1326 12.486 34.1326 11.934ZM37.5886 3.582V8.964C37.5886 9.216 37.6066 9.378 37.6426 9.45C37.6786 9.51 37.7866 9.54 37.9666 9.54C38.6266 9.54 39.1246 9.294 39.4606 8.802C39.8086 8.31 39.9826 7.494 39.9826 6.354C39.9826 5.202 39.8026 4.452 39.4426 4.104C39.0946 3.756 38.5366 3.582 37.7686 3.582H37.5886ZM11.2217 23.37C11.4497 23.55 11.8397 23.796 12.3917 24.108C12.9557 24.42 13.4897 24.576 13.9937 24.576C14.5097 24.576 14.7677 24.378 14.7677 23.982C14.7677 23.802 14.6957 23.646 14.5517 23.514C14.4077 23.37 14.1437 23.208 13.7597 23.028C13.3757 22.848 13.0877 22.71 12.8957 22.614C12.7037 22.506 12.4457 22.338 12.1217 22.11C11.8097 21.87 11.5697 21.624 11.4017 21.372C10.9217 20.688 10.6817 19.818 10.6817 18.762C10.6817 17.706 11.0717 16.818 11.8517 16.098C12.6437 15.366 13.6757 15 14.9477 15C15.8117 15 16.6097 15.096 17.3417 15.288C18.0737 15.468 18.4517 15.708 18.4757 16.008C18.4757 16.044 18.4757 16.08 18.4757 16.116C18.4757 16.536 18.3437 17.07 18.0797 17.718C17.8157 18.354 17.6297 18.708 17.5217 18.78C16.7537 18.384 16.0637 18.186 15.4517 18.186C14.8517 18.186 14.5517 18.402 14.5517 18.834C14.5517 19.098 14.7737 19.332 15.2177 19.536C15.3137 19.584 15.4517 19.65 15.6317 19.734C15.8117 19.818 16.0157 19.92 16.2437 20.04C16.4837 20.148 16.7357 20.292 16.9997 20.472C17.2757 20.64 17.5697 20.868 17.8817 21.156C18.5177 21.756 18.8357 22.548 18.8357 23.532C18.8357 24.816 18.4817 25.866 17.7737 26.682C17.0657 27.498 15.9737 27.918 14.4977 27.942C13.7777 27.942 13.1237 27.882 12.5357 27.762C11.9597 27.642 11.4557 27.408 11.0237 27.06C10.5917 26.712 10.3757 26.292 10.3757 25.8C10.3757 25.308 10.4657 24.822 10.6457 24.342C10.8257 23.85 11.0177 23.526 11.2217 23.37ZM30.2702 27.456C30.2702 27.66 29.6642 27.762 28.4522 27.762C27.2402 27.762 26.6342 27.66 26.6342 27.456V23.316H24.1142V27.456C24.1142 27.66 23.5082 27.762 22.2962 27.762C21.0842 27.762 20.4782 27.66 20.4782 27.456V15.522C20.4782 15.27 21.0842 15.144 22.2962 15.144C23.5082 15.144 24.1142 15.27 24.1142 15.522V19.752H26.6342V15.558C26.6342 15.39 26.9342 15.27 27.5342 15.198C27.8462 15.174 28.1522 15.162 28.4522 15.162L29.3702 15.198C29.9702 15.27 30.2702 15.39 30.2702 15.558V27.456ZM37.5702 27.942C35.8902 27.942 34.5162 27.39 33.4482 26.286C32.3922 25.182 31.8642 23.574 31.8642 21.462C31.8642 19.338 32.3982 17.73 33.4662 16.638C34.5462 15.546 35.9322 15 37.6242 15C39.3282 15 40.7022 15.54 41.7462 16.62C42.7902 17.688 43.3122 19.314 43.3122 21.498C43.3122 23.67 42.7782 25.29 41.7102 26.358C40.6422 27.414 39.2622 27.942 37.5702 27.942ZM37.5882 18.456C37.0122 18.456 36.5262 18.72 36.1302 19.248C35.7462 19.776 35.5542 20.52 35.5542 21.48C35.5542 22.428 35.7402 23.16 36.1122 23.676C36.4842 24.18 36.9702 24.432 37.5702 24.432C38.1822 24.432 38.6742 24.174 39.0462 23.658C39.4302 23.142 39.6222 22.404 39.6222 21.444C39.6222 20.484 39.4242 19.746 39.0282 19.23C38.6442 18.714 38.1642 18.456 37.5882 18.456ZM46.4854 27.798C45.3934 27.798 44.8474 27.678 44.8474 27.438V15.774C44.8474 15.366 45.0334 15.162 45.4054 15.162H48.5734C50.3494 15.162 51.6274 15.528 52.4074 16.26C53.1994 16.992 53.5954 18.054 53.5954 19.446C53.5954 20.598 53.2234 21.654 52.4794 22.614C52.1074 23.094 51.5614 23.478 50.8414 23.766C50.1214 24.054 49.2814 24.198 48.3214 24.198V27.42C48.3214 27.564 48.0934 27.666 47.6374 27.726C47.1934 27.774 46.8094 27.798 46.4854 27.798ZM48.3214 18.294V21.138H48.5554C48.9754 21.138 49.3294 21.006 49.6174 20.742C49.9054 20.478 50.0494 20.106 50.0494 19.626C50.0494 19.146 49.9474 18.804 49.7434 18.6C49.5514 18.396 49.2034 18.294 48.6994 18.294H48.3214Z" fill="black"/>
</svg>
